<mxfile host="app.diagrams.net" agent="Mozilla/5.0 (Windows NT 10.0; Win64; x64) AppleWebKit/537.36 (KHTML, like Gecko) Chrome/137.0.0.0 Safari/537.36" version="27.1.6">
  <diagram name="Página-1" id="sovLj1_QtCi7LNNnXH9Z">
    <mxGraphModel grid="1" page="1" gridSize="10" guides="1" tooltips="1" connect="1" arrows="1" fold="1" pageScale="1" pageWidth="827" pageHeight="1169" math="0" shadow="0">
      <root>
        <mxCell id="0" />
        <mxCell id="1" parent="0" />
        <mxCell id="DxDs1wDevlz3QD0G5kfZ-1" value="" style="rounded=0;whiteSpace=wrap;html=1;" vertex="1" parent="1">
          <mxGeometry x="310" y="242.5" width="480" height="410" as="geometry" />
        </mxCell>
        <mxCell id="DxDs1wDevlz3QD0G5kfZ-2" value="&lt;font style=&quot;font-size: 18px;&quot;&gt;Usuario&lt;/font&gt;" style="shape=umlActor;verticalLabelPosition=bottom;verticalAlign=top;html=1;outlineConnect=0;" vertex="1" parent="1">
          <mxGeometry x="120" y="361.25" width="90" height="172.5" as="geometry" />
        </mxCell>
        <mxCell id="DxDs1wDevlz3QD0G5kfZ-5" value="Registrarse" style="ellipse;whiteSpace=wrap;html=1;" vertex="1" parent="1">
          <mxGeometry x="390" y="282.5" width="120" height="80" as="geometry" />
        </mxCell>
        <mxCell id="DxDs1wDevlz3QD0G5kfZ-6" value="Iniciar Sesión" style="ellipse;whiteSpace=wrap;html=1;" vertex="1" parent="1">
          <mxGeometry x="390" y="530" width="120" height="80" as="geometry" />
        </mxCell>
        <mxCell id="DxDs1wDevlz3QD0G5kfZ-7" value="Recuperar Contraseña" style="ellipse;whiteSpace=wrap;html=1;align=center;" vertex="1" parent="1">
          <mxGeometry x="630" y="530" width="120" height="80" as="geometry" />
        </mxCell>
        <mxCell id="DxDs1wDevlz3QD0G5kfZ-11" value="" style="endArrow=none;html=1;rounded=0;exitX=1;exitY=0.3333333333333333;exitDx=0;exitDy=0;exitPerimeter=0;entryX=0;entryY=0.5;entryDx=0;entryDy=0;" edge="1" parent="1" source="DxDs1wDevlz3QD0G5kfZ-2" target="DxDs1wDevlz3QD0G5kfZ-5">
          <mxGeometry width="50" height="50" relative="1" as="geometry">
            <mxPoint x="439" y="480" as="sourcePoint" />
            <mxPoint x="489" y="430" as="targetPoint" />
          </mxGeometry>
        </mxCell>
        <mxCell id="DxDs1wDevlz3QD0G5kfZ-12" value="" style="endArrow=none;html=1;rounded=0;exitX=1;exitY=0.3333333333333333;exitDx=0;exitDy=0;exitPerimeter=0;entryX=0;entryY=0.5;entryDx=0;entryDy=0;" edge="1" parent="1" source="DxDs1wDevlz3QD0G5kfZ-2" target="DxDs1wDevlz3QD0G5kfZ-6">
          <mxGeometry width="50" height="50" relative="1" as="geometry">
            <mxPoint x="439" y="480" as="sourcePoint" />
            <mxPoint x="489" y="430" as="targetPoint" />
          </mxGeometry>
        </mxCell>
        <mxCell id="649pT2nz66n9Op0nIiaH-1" value="&lt;font style=&quot;font-size: 18px;&quot;&gt;Casos de Uso - Usuario&lt;/font&gt;" style="text;html=1;align=center;verticalAlign=middle;whiteSpace=wrap;rounded=0;" vertex="1" parent="1">
          <mxGeometry x="310" y="212.5" width="210" height="30" as="geometry" />
        </mxCell>
        <mxCell id="N5p1ISkl5QzjhFT6JDey-4" value="extend" style="endArrow=open;endSize=12;dashed=1;html=1;rounded=0;exitX=0;exitY=0.5;exitDx=0;exitDy=0;entryX=1;entryY=0.5;entryDx=0;entryDy=0;" edge="1" parent="1" source="DxDs1wDevlz3QD0G5kfZ-7" target="DxDs1wDevlz3QD0G5kfZ-6">
          <mxGeometry width="160" relative="1" as="geometry">
            <mxPoint x="1020" y="490" as="sourcePoint" />
            <mxPoint x="920" y="640" as="targetPoint" />
          </mxGeometry>
        </mxCell>
      </root>
    </mxGraphModel>
  </diagram>
</mxfile>
